<?xml version="1.0" encoding="UTF-8" standalone="no"?>
<svg
   xmlns:dc="http://purl.org/dc/elements/1.1/"
   xmlns:cc="http://creativecommons.org/ns#"
   xmlns:rdf="http://www.w3.org/1999/02/22-rdf-syntax-ns#"
   xmlns:svg="http://www.w3.org/2000/svg"
   xmlns="http://www.w3.org/2000/svg"
   xmlns:xlink="http://www.w3.org/1999/xlink"
   xmlns:sodipodi="http://sodipodi.sourceforge.net/DTD/sodipodi-0.dtd"
   xmlns:inkscape="http://www.inkscape.org/namespaces/inkscape"
   data-name="Layer 1"
   viewBox="0 0 1030.01 729.86"
   version="1.1"
   id="svg218"
   sodipodi:docname="javascript.svg"
   inkscape:version="1.0.2 (1.0.2+r75+1)">
  <metadata
     id="metadata222">
    <rdf:RDF>
      <cc:Work
         rdf:about="">
        <dc:format>image/svg+xml</dc:format>
        <dc:type
           rdf:resource="http://purl.org/dc/dcmitype/StillImage" />
      </cc:Work>
    </rdf:RDF>
  </metadata>
  <sodipodi:namedview
     pagecolor="#ffffff"
     bordercolor="#666666"
     borderopacity="1"
     objecttolerance="10"
     gridtolerance="10"
     guidetolerance="10"
     inkscape:pageopacity="0"
     inkscape:pageshadow="2"
     inkscape:window-width="1366"
     inkscape:window-height="704"
     id="namedview220"
     showgrid="false"
     inkscape:zoom="0.51541503"
     inkscape:cx="948.53914"
     inkscape:cy="368.04355"
     inkscape:window-x="0"
     inkscape:window-y="0"
     inkscape:window-maximized="1"
     inkscape:current-layer="svg218" />
  <defs
     id="defs10">
    <linearGradient
       id="a"
       x1="889.13"
       y1="701.85"
       x2="889.13"
       y2="363.3"
       gradientUnits="userSpaceOnUse">
      <stop
         offset="0"
         stop-color="gray"
         stop-opacity=".25"
         id="stop2" />
      <stop
         offset=".54"
         stop-color="gray"
         stop-opacity=".12"
         id="stop4" />
      <stop
         offset="1"
         stop-color="gray"
         stop-opacity=".1"
         id="stop6" />
    </linearGradient>
    <linearGradient
       id="b"
       x1="376.53"
       y1="777.06"
       x2="376.53"
       y2="381.85"
       xlink:href="#a"
       gradientTransform="translate(-121.80269,-123.13048)" />
  </defs>
  <ellipse
     cx="814.66"
     cy="585.22"
     rx="211.36"
     ry="41.08"
     fill="#6c63ff"
     opacity=".1"
     id="ellipse12" />
  <g
     opacity=".5"
     id="g18"
     transform="translate(202,4)">
    <path
       d="m 633.62,103.56 c -2.85,0.81 -6.34,2.92 -8.06,8.69 -3.37,11.31 4.46,19 1.88,30.79 a 23,23 0 0 1 -4,8.64 c -3.15,4.27 -6.57,6.29 -9.89,9.28 a 29.5,29.5 0 0 0 -8.69,14.27 39.5,39.5 0 0 0 -0.39,18.55 c 1.18,5.12 3.19,8.85 4.95,13 a 96,96 0 0 1 5.11,16.37 39.87,39.87 0 0 1 1.12,8.32 73.21,73.21 0 0 1 -1,11.12 l -4.79,33.42 a 100.43,100.43 0 0 0 -1.31,13.21 65.61,65.61 0 0 0 1.53,13.19 c 1.68,8.84 3.49,18 7.34,22.68 3.85,4.68 10.41,3 14.44,-6.47 3.83,-9.06 3.92,-21.15 7.3,-30.83 5.33,-15.25 15.92,-17.3 21.8,-31.85 5.64,-14 3.91,-31.08 6.77,-47 2,-11.41 6.41,-21.81 9,-33.08 3.72,-16.23 3.35,-33.08 0.38,-45.56 a 60.55,60.55 0 0 0 -14.18,-27.54 c -2.49,-2.75 -5.16,-5.2 -8.29,-5.45 -3.33,-0.26 -6.24,3.93 -9.53,5.19 -3.8,1.49 -7.62,-0.04 -11.49,1.06 z"
       fill="#6c63ff"
       id="path14" />
    <path
       d="m 651.65,98.16 c 0,0 -5.64,144.34 -29.36,229.45 m 3.13,-214.68 c 0,0 25.35,23.08 20.54,67 m -41.81,-1.32 c 0,0 41.61,8.37 38.52,33.26 M 677.18,130 c 0,0 -16.84,14.74 -31.84,56.49 m 15.39,69.69 c 0,0 -11.49,9 -20.71,-22.51 m -28.87,40.92 c 0,0 23.43,-3.06 25.59,-17.73"
       fill="none"
       stroke="#535461"
       stroke-miterlimit="10"
       stroke-width="2"
       id="path16" />
  </g>
  <path
     d="m 892.26,10.75 c -5.8,0.86 -12.78,3.55 -15.65,11.84 -5.63,16.26 11.48,28.57 7.54,45.56 a 25.53,25.53 0 0 1 -7.14,12.25 c -6,5.91 -12.86,8.49 -19.36,12.5 -6.5,4.01 -13.25,10.32 -16.3,20 -2.93,9.31 -1.66,19.59 1.39,27.27 3.05,7.68 7.66,13.41 11.78,19.73 a 133.69,133.69 0 0 1 12.49,24.7 46.94,46.94 0 0 1 3.32,12.33 c 0.53,5.2 -0.14,10.79 -0.81,16.26 l -5.95,48.74 c -0.79,6.48 -1.59,13.06 -1.14,19.3 0.51,7.19 2.64,13.47 4.74,19.6 4.52,13.22 9.36,27 17.89,34.28 8.53,7.28 21.91,5.72 29.12,-7.82 6.86,-12.89 5.6,-30.68 11.45,-44.53 9.22,-21.83 30.9,-23.6 41.33,-44.32 10,-19.88 4.41,-45.31 8.43,-68.41 2.88,-16.55 10.68,-31.35 14.68,-47.64 5.77,-23.47 3,-48.32 -4.62,-67 -7.62,-18.68 -19.67,-32 -32.6,-42.23 -5.48,-4.35 -11.29,-8.28 -17.8,-9 -6.92,-0.77 -12.45,5.05 -19.1,6.52 -7.74,1.61 -15.82,-1.1 -23.69,0.07 z"
     fill="#6c63ff"
     id="path20" />
  <path
     d="m 928.94,4.93 c 0,0 5.46,211.89 -33.56,334.42 M 876.39,23.61 c 0,0 55.2,37 50.47,101.16 m -86.7,-6.99 c 0,0 87.12,17.26 83.68,53.54 M 985.55,54.85 c 0,0 -33.11,19.71 -59.19,79.41 m 40.08,104.46 c 0,0 -22.7,12 -45.53,-35.61 m -54.9,56.82 c 0,0 48.13,-1.73 50.87,-23.08"
     fill="none"
     stroke="#535461"
     stroke-miterlimit="10"
     stroke-width="2"
     id="path22" />
  <path
     d="M67.25 578.59s8.38 11-3.87 27.5-22.37 30.52-18.26 40.84c0 0 18.48-30.73 33.52-31.16s5.16-18.7-11.39-37.18z"
     fill="#6c63ff"
     id="path24" />
  <path
     d="M67.25 578.59a13.57 13.57 0 011.76 3.44c14.68 17.24 22.49 33.33 8.39 33.74-13.14.38-28.9 23.87-32.68 29.81a12.74 12.74 0 00.45 1.35s18.48-30.73 33.52-31.16 5.11-18.7-11.44-37.18z"
     opacity=".1"
     id="path26" />
  <path
     d="M82.83 592.56c0 3.86-.43 7-1 7s-1-3.13-1-7 .54-2 1.07-2 .93-1.86.93 2z"
     fill="#ffd037"
     id="path28" />
  <path
     d="M88.18 597.16c-3.39 1.85-6.34 3-6.59 2.49s2.28-2.35 5.67-4.19 2.05-.5 2.31 0 1.99-.15-1.39 1.7z"
     fill="#ffd037"
     id="path30" />
  <path
     d="M23.01 578.59s-8.38 11 3.87 27.5 22.35 30.51 18.26 40.83c0 0-18.48-30.73-33.52-31.16s-5.18-18.69 11.39-37.17z"
     fill="#6c63ff"
     id="path32" />
  <path
     d="M23.01 578.59a13.57 13.57 0 00-1.71 3.44c-14.68 17.24-22.49 33.33-8.39 33.74 13.14.38 28.9 23.87 32.68 29.81a12.74 12.74 0 01-.45 1.35s-18.48-30.73-33.52-31.16-5.18-18.7 11.39-37.18z"
     opacity=".1"
     id="path34" />
  <path
     d="M7.41 592.56c0 3.86.43 7 1 7s1-3.13 1-7-.54-2-1.07-2-.93-1.86-.93 2z"
     fill="#ffd037"
     id="path36" />
  <path
     d="M2.06 597.16c3.39 1.85 6.34 3 6.59 2.49s-2.28-2.35-5.67-4.19-2.05-.5-2.31 0-1.99-.15 1.39 1.7z"
     fill="#ffd037"
     id="path38" />
  <path
     d="M10.08 645.49s23.43-.72 30.49-5.75 36-11 37.79-3 35.21 40.11 8.76 40.32-61.46-4.12-68.51-8.41-8.53-23.16-8.53-23.16z"
     fill="#a8a8a8"
     id="path40" />
  <path
     d="M87.59 674.28c-26.45.21-61.46-4.12-68.51-8.41-5.37-3.27-7.51-15-8.22-20.41h-.78s1.48 18.9 8.53 23.19 42.06 8.63 68.51 8.41c7.64-.06 10.27-2.78 10.13-6.8-1.06 2.46-3.97 3.98-9.66 4.02z"
     opacity=".2"
     id="path42" />
  <path
     d="M982.36 574.04a11.67 11.67 0 003.83-5.78c.5-2.3-.48-5.05-2.68-5.89-2.46-.94-5.09.76-7.08 2.49s-4.28 3.69-6.89 3.32a10.48 10.48 0 003.24-9.81 4.1 4.1 0 00-.9-2c-1.37-1.46-3.84-.83-5.48.32-5.2 3.66-6.65 10.72-6.68 17.08-.52-2.29-.08-4.68-.1-7s-.66-5-2.64-6.22a8 8 0 00-4-.95c-2.34-.09-4.94.15-6.54 1.86-2 2.12-1.47 5.69.26 8s4.35 3.8 6.77 5.42a15 15 0 014.84 4.61 4.57 4.57 0 01.36.82h14.65a40.83 40.83 0 009.04-6.27z"
     fill="#6c63ff"
     id="path44" />
  <path
     d="M146.73 480.32c31.82 40.46 19.46 99.57-.76 146.9-6.77 15.85-14.43 32.62-11.57 49.61 3.49 20.78 22 36 41.52 44 35.5 14.68 78 11.18 110.61-9.11 28.19-17.54 48.38-46.06 77.05-62.8 48-28 109.06-17.43 161.16 1.86 36.86 13.65 77.16 31.41 113.79 17.14 25.77-10 43.59-34.47 53.3-60.37 4.69-12.51 8.09-26 17-36 5.32-5.89 12.26-10.08 19.38-13.6 65-32.21 147-15 210.08-50.68 42.61-24.12 69.89-69.63 82-117.08s10.67-97.21 7.6-146.07c-2.18-34.73-6.09-71.8-28.28-98.61-23.47-28.35-63.76-38.9-100.17-33.51s-69.43 24.69-98.43 47.31c-36.29 28.27-69.94 63.48-114.5 74.94-30.34 7.8-62.26 3.53-93.56 2.06-52.32-2.47-104.65 3-156.68 9-49.81 5.76-100 12.1-147.43 28.3-33.58 11.47-60.5 32.28-92.21 46.82-20.67 9.48-43.21 12.1-62.77 24.17-24.11 14.87-46.2 40.74-40 71 5.82 28.81 35.97 43.25 52.87 64.72z"
     fill="#6c63ff"
     opacity=".1"
     id="path46" />
  <ellipse
     cx="552.35"
     cy="439.22"
     rx="427.67"
     ry="41.08"
     fill="#6c63ff"
     opacity=".1"
     id="ellipse48" />
  <ellipse
     cx="223.66"
     cy="676.22"
     rx="211.36"
     ry="41.08"
     fill="#6c63ff"
     opacity=".1"
     id="ellipse50" />
  <path
     d="m 641.72,430.41 -3.35,4.87 c 0,0 3.65,4.87 4,5.48 0.35,0.61 10.65,-0.3 10.65,-0.3 l 0.91,-3.65 -1.52,-4.26 z"
     fill="#e6e6f0"
     id="path52" />
  <path
     fill="#fdc2cc"
     d="m 290.27731,385.60952 -6.7,1.21 4.26,8.23 4.57,2.43 4.26,3.04 1.22,-3.34 -3.05,-6.4 z"
     id="path54" />
  <path
     d="m 638.68,348.52 c 0,0 35.62,8.52 42.31,18 0,0 6.09,5.18 0,14.61 -6.09,9.43 -14.61,30.75 -14.61,30.75 0,0 -6.09,20.7 -8.52,22.22 -2.43,1.52 -16.44,2.74 -17.66,-3 0,0 7.91,-12.48 7.91,-18.27 0,-5.79 13.09,-33.18 13.09,-33.18 0,0 -29.83,-3.35 -39.27,-1.22 -9.44,2.13 4.27,-33.26 16.75,-29.91 z"
     fill="#565171"
     id="path56" />
  <path
     d="m 638.68,348.52 c 0,0 35.62,8.52 42.31,18 0,0 6.09,5.18 0,14.61 -6.09,9.43 -14.61,30.75 -14.61,30.75 0,0 -6.09,20.7 -8.52,22.22 -2.43,1.52 -16.44,2.74 -17.66,-3 0,0 7.91,-12.48 7.91,-18.27 0,-5.79 13.09,-33.18 13.09,-33.18 0,0 -29.83,-3.35 -39.27,-1.22 -9.44,2.13 4.27,-33.26 16.75,-29.91 z"
     opacity=".1"
     id="path58" />
  <path
     d="m 631.37,356.74 c -0.07,1.77 -0.26,3.76 -0.53,5.9 -1.95,15.5 -8.3,38.55 -8.3,38.55 0,0 -6.39,13.7 -8.22,22.53 -1.83,8.83 -14.31,11 -14.31,11 0,0 -34.1,4 -41.1,2.44 -7,-1.56 -18,4.57 -23.44,3.65 -5.44,-0.92 -8.83,-13.7 -8.83,-13.7 a 66,66 0 0 0 27.4,-5.78 c 14,-6.39 34.1,-3.35 34.1,-3.35 a 11.45,11.45 0 0 0 7,-5.78 c 2.13,-4.57 2.13,-32.27 1.52,-34.1 -4,-12 -3.67,-19.7 -2.52,-24.19 a 12.07,12.07 0 0 1 2.52,-5.34 z"
     fill="#565171"
     id="path60" />
  <path
     d="m 631.37,356.74 c -0.07,1.77 -0.26,3.76 -0.53,5.9 -3.06,0.24 -11.64,0.47 -18,-3.46 -6,-3.68 -14.73,-4.93 -18.66,-5.32 a 12.07,12.07 0 0 1 2.52,-5.34 z"
     opacity=".1"
     id="path62" />
  <path
     d="m 635.58,352.93 c -1.42,4 -3.6,8.69 -3.6,8.69 0,0 -11.26,1.52 -19.18,-3.35 -7.92,-4.87 -20.7,-5.48 -20.7,-5.48 2.07,-1.27 3.47,-5.13 4.34,-8.51 a 53.93,53.93 0 0 0 1.14,-5.8 c 0,0 37.44,7.61 39,8.83 0.58,0.48 -0.04,2.9 -1,5.62 z"
     fill="#e6e6f0"
     id="path64" />
  <path
     d="m 702.3,224.62 -45.41,27.41 -4.51,2.72 v -13.39 l 3.13,-1.5 38.27,-18.29 c 0,0 1.83,-33.18 6.7,-28 4.87,5.18 1.82,31.05 1.82,31.05 z"
     fill="#fdc2cc"
     id="path66" />
  <path
     d="m 656.89,252.03 -4.51,2.72 v -13.39 l 3.13,-1.5 a 98.54,98.54 0 0 0 1.38,12.17 z"
     opacity=".1"
     id="path68" />
  <path
     d="m 621.94,256.93 32.57,-18.87 c 0,0 0.61,18.27 4.26,21 0,0 -13.39,4 -18.57,12.48 z"
     fill="#b45181"
     id="path70"
     style="fill:#fa740d;fill-opacity:1" />
  <path
     d="m 702.01,273.02 c 0,0 -15.49,6.75 -25.75,9.23 a 20.22,20.22 0 0 1 -7.13,0.82 c -7,-1.22 1.83,-10 1.83,-10 l 3.68,-0.57 19.76,-3.08 c 0,0 2.13,-30.44 5.78,-28 3.65,2.44 1.83,31.6 1.83,31.6 z m -65.46,-27.4 c 0,0 -13.09,9.74 -8.22,21.92 4.87,12.18 -25.27,-7.31 -25.27,-7.31 0,0 9.74,-14.61 11.87,-25.57 2.13,-10.96 21.62,10.96 21.62,10.96 z"
     fill="#fdc2cc"
     id="path74" />
  <path
     d="m 635.58,352.93 a 69,69 0 0 0 -17.6,-4.1 c -8.8,-1 -16.86,-2.69 -21.53,-4.55 a 53.93,53.93 0 0 0 1.14,-5.8 c 0,0 37.44,7.61 39,8.83 0.57,0.48 -0.05,2.9 -1.01,5.62 z m 40.67,-70.68 a 20.22,20.22 0 0 1 -7.13,0.82 c -7,-1.22 1.83,-10 1.83,-10 l 3.68,-0.57 c 1.54,2.37 3.11,6.07 1.62,9.75 z"
     opacity=".1"
     id="path76" />
  <path
     d="m 615.24,251.1 c 0,0 -11.87,-0.3 -16.13,4.57 -4.26,4.87 -3.35,18 -3.35,18 0,0 -0.89,26.29 5.78,41 a 2,2 0 0 1 0.07,1.51 c -0.07,0.18 -0.07,0.07 -0.07,0.07 0,0 -4.26,19.18 -8.52,22.53 -4.26,3.35 9.13,7.31 25,9.13 15.87,1.82 22.22,6.39 22.22,6.39 0,0 2.74,-3 3,-9.74 0.26,-6.74 -4.23,-55.71 -4.23,-55.71 0,0 16.74,4.26 26.79,-0.91 0,0 4.57,2.44 8.83,-4.26 4.26,-6.7 -3,-14 -3,-14 0,0 -6.7,6.7 -25.27,-2.13 -18.57,-8.83 -25.35,-16.75 -31.12,-16.45 z"
     fill="#b45181"
     id="path78"
     style="fill:#fa740d;fill-opacity:1" />
  <path
     d="m 285.40731,386.21952 h -3.65 v 5.18 l 3.65,8.22 c 0,0 4.87,0.91 5.18,0.91 0.31,0 4.26,-0.91 4.26,-0.91 l 1.22,-2.13 c 0,0 -13.4,-5.19 -10.66,-11.27 z"
     fill="#e6e6f0"
     id="path80" />
  <path
     d="m 638.68,433.15 -5.48,12.18 23.14,11 18.27,0.61 c 0,0 1.52,-4.26 -4.57,-6.39 l -4.87,-0.91 c 0,0 -6.39,-11.57 -7,-17 0,0 -6.09,1.22 -7,5.78 -0.01,-0.1 -8.53,4.16 -12.49,-5.27 z m -117.2,-6.09 -1.86,1.52 -8.18,6.7 18.87,25 c 0,0 10.65,4.57 15.53,0 0,0 3,-3 -3.65,-5.48 0,0 -5.18,0.91 -5.18,-4.26 0,-5.17 1.22,-10.65 3,-11.87 0,0 -4.57,-1.52 -5.78,-0.3 a 19.32,19.32 0 0 0 -2.44,3.35 c 0,0 -10.92,-4.31 -10.31,-14.66 z"
     fill="#b45181"
     id="path82"
     style="fill:#fa740d;fill-opacity:1" />
  <path
     d="m 614.33,235.27 a 37,37 0 0 1 -1.22,4.56 15.83,15.83 0 0 0 20.27,8.71 25.18,25.18 0 0 1 2.57,-2.31 c 0,0 -19.49,-21.92 -21.62,-10.96 z m -1.68,40.66 c 0,0 9.44,12.48 23.14,12.79"
     opacity=".1"
     id="path84" />
  <g
     opacity=".1"
     id="g88"
     transform="translate(202,4)">
    <path
       d="m 467.07,284.15 a 3.44,3.44 0 0 1 -0.56,-0.21 q -0.44,0.23 -0.9,0.43 a 5.69,5.69 0 0 0 1.46,-0.22 z m 3.24,-17.22 a 15.06,15.06 0 0 0 -1.06,-1.22 c 0,0 -2,2 -6.94,2.38 a 16.8,16.8 0 0 0 8,-1.16 z m -30.59,17.92 0.06,0.65 a 60.46,60.46 0 0 0 12.18,1 63.38,63.38 0 0 1 -12.24,-1.65 z m -21,59.08 c -15.83,-1.83 -29.22,-5.78 -25,-9.13 4.22,-3.35 8.52,-22.53 8.52,-22.53 0,0 0,0.11 0.07,-0.07 a 2,2 0 0 0 -0.07,-1.51 c -6.67,-14.75 -5.78,-41 -5.78,-41 0,0 -0.91,-13.09 3.35,-18 3.17,-3.63 10.56,-4.38 14.13,-4.53 a 6.47,6.47 0 0 0 -1,0 c 0,0 -11.87,-0.3 -16.13,4.57 -4.26,4.87 -3.35,18 -3.35,18 0,0 -0.89,26.29 5.78,41 a 2,2 0 0 1 0.07,1.51 c -0.07,0.18 -0.07,0.07 -0.07,0.07 0,0 -4.23,19.12 -8.53,22.47 -4.3,3.35 9.13,7.31 25,9.13 15.87,1.82 22.22,6.39 22.22,6.39 a 7.8,7.8 0 0 0 0.84,-1.23 c -3.09,-1.49 -9.45,-3.94 -20.05,-5.14 z"
       id="path86" />
  </g>
  <circle
     cx="628.32996"
     cy="233.14"
     r="15.83"
     fill="#fdc2cc"
     id="circle90" />
  <path
     d="m 650.86,226.06 c -1.31,3.28 -5.22,4.52 -8.65,5.37 -4.9,1.2 -10.18,2.38 -14.87,0.52 a 3.25,3.25 0 0 0 -2,-0.39 2.66,2.66 0 0 0 -1.32,1.15 c -5.17,7.36 -4.33,17.17 -5.67,26.07 -0.42,2.77 -1.13,5.63 -3,7.7 -3.64,4 -10.51,3.85 -13.86,8.1 -2.21,2.8 -2.23,6.69 -2.21,10.26 q 0,5.71 -0.1,11.43 c -0.06,2.5 -0.18,5.09 -1.31,7.31 -1.92,3.76 -6.2,5.55 -10.15,7 -2.46,0.92 -5,1.85 -7.64,1.6 -2.64,-0.25 -5.28,-2 -5.62,-4.64 -0.47,-3.58 3.22,-6.08 5.76,-8.66 4.06,-4.11 5.73,-10.09 5.88,-15.87 a 17,17 0 0 0 -1,-6.87 c -0.93,-2.27 -2.59,-4.18 -3.59,-6.42 -3.08,-6.9 0.72,-14.88 5.27,-20.92 4.55,-6.04 10.14,-11.93 11.11,-19.42 a 26.93,26.93 0 0 1 0.69,-4.81 c 0.7,-2.18 2.36,-8.2 4.19,-9.58 a 21.77,21.77 0 0 1 10,-4.16 c 2.81,-0.41 5.68,-0.26 8.47,-0.8 3.26,-0.63 6.29,-2.18 9.55,-2.76 7.05,-1.25 14.7,6.94 17.79,13.4 0.85,1.98 3.08,3.38 2.28,5.39 z"
     opacity=".1"
     id="path92" />
  <path
     d="m 650.86,225.45 c -1.31,3.28 -5.22,4.52 -8.65,5.37 -4.9,1.2 -10.18,2.38 -14.87,0.52 a 3.25,3.25 0 0 0 -2,-0.39 2.66,2.66 0 0 0 -1.32,1.15 c -5.17,7.36 -4.33,17.17 -5.67,26.07 -0.42,2.77 -1.13,5.63 -3,7.7 -3.64,4 -10.51,3.85 -13.86,8.1 -2.21,2.8 -2.23,6.69 -2.21,10.26 q 0,5.71 -0.1,11.43 c -0.06,2.5 -0.18,5.09 -1.31,7.31 -1.92,3.76 -6.2,5.55 -10.15,7 -2.46,0.92 -5,1.85 -7.64,1.6 -2.64,-0.25 -5.28,-2 -5.62,-4.64 -0.47,-3.58 3.22,-6.08 5.76,-8.66 4.06,-4.11 5.73,-10.09 5.88,-15.87 a 17,17 0 0 0 -1,-6.87 c -0.93,-2.27 -2.59,-4.18 -3.59,-6.42 -3.08,-6.9 0.72,-14.88 5.27,-20.92 4.55,-6.04 10.14,-11.93 11.11,-19.42 a 26.93,26.93 0 0 1 0.69,-4.81 c 0.7,-2.18 2.36,-8.2 4.19,-9.58 a 21.77,21.77 0 0 1 10,-4.16 c 2.81,-0.41 5.68,-0.26 8.47,-0.8 3.26,-0.63 6.29,-2.18 9.55,-2.76 7.05,-1.25 14.7,6.94 17.79,13.4 0.85,1.98 3.08,3.38 2.28,5.39 z"
     fill="#f569bc"
     id="path94"
     style="fill:#fa9f0d;fill-opacity:1" />
  <path
     d="m 329.91731,340.37952 c -1.95,-5.71 -4.76,-13 -7,-14.66 a 2.09,2.09 0 0 0 -0.44,-0.27 h -0.28 v -7.05 l -5.26,0.84 a 50.27,50.27 0 0 1 -1.91,-7.81 3.63,3.63 0 0 0 3.95,0.79 c -0.09,-0.14 -0.16,-0.29 -0.24,-0.44 l 0.24,-0.1 a 9.77,9.77 0 0 1 -1.27,-4.79 17.44,17.44 0 0 1 0.73,-4.52 c 0.94,-3.25 2.53,-6.29 3.42,-9.55 a 23.22,23.22 0 0 0 0.8,-6.46 23.54,23.54 0 0 0 -2.46,-10.65 6.22,6.22 0 0 0 -1.86,-2.43 24,24 0 0 0 -2.28,-1.11 12.31,12.31 0 0 1 -3.31,-3.3 29.74,29.74 0 0 0 -14.37,-9.59 8.41,8.41 0 0 0 -4.59,-0.36 c -3.53,1 -4.82,5.33 -7.68,7.62 -2.53,2 -6,2.23 -9.16,2.91 a 15.58,15.58 0 0 0 -8.53,4.47 9.26,9.26 0 0 0 -2.29,6.18 6.21,6.21 0 0 0 2.53,5.52 7.93,7.93 0 0 0 6.7,0.95 22.79,22.79 0 0 0 17.25,28.65 l 0.62,1.1 a 47.19,47.19 0 0 1 4.27,11.17 c -4.84,2.75 -10.13,5.32 -13.32,5.56 a 22.45,22.45 0 0 1 -0.69,3.69 20.37,20.37 0 0 1 -4.19,8.25 c -4.34,4.88 -23.87,41.78 -23.87,41.78 0,0 -0.62,1.47 -1.62,4 -12.13,1.49 -31.92,3.64 -37.45,2.53 l -21.7,-20.62 c 0,0 -7,5.35 -6.4,11.85 l -3.91,-3.72 c 0,0 -20.62,15.73 11.94,26 l 49.54,5.75 c -4.72,14.24 -9.12,30.81 -7.76,39.83 h 0.41 a 18.73,18.73 0 0 0 2.83,-0.22 l -0.09,1.6 -4.77,85.43 c 0,0 -1.09,15.73 13.56,22.79 0,0 17.91,52.63 10.85,58.6 0,0 0.84,0.44 2.25,1.06 l -14.73,13 c 0,0 -10.85,2.71 -16.82,2.17 a 4.31,4.31 0 0 0 -4.76,3.21 c 0,0.11 0,0.22 -0.06,0.34 v 1.05 c 0,0.12 0,0.23 0.07,0.35 v 0.13 q 0.05,0.19 0.12,0.37 v 0.12 c 0.05,0.12 0.11,0.24 0.17,0.36 v 0.08 c 0.07,0.12 0.14,0.24 0.22,0.36 l 0.07,0.1 q 0.13,0.19 0.29,0.38 l 0.08,0.1 c 0.11,0.13 0.23,0.25 0.36,0.38 h 0.06 l 0.4,0.34 0.09,0.07 0.49,0.35 0.12,0.08 0.57,0.33 h 0.09 l 0.61,0.3 h 0.09 l 0.71,0.29 0.15,0.06 0.79,0.26 h 0.13 l 0.85,0.22 h 0.07 l 1,0.19 h 0.19 l 1,0.15 h 0.19 l 1.15,0.11 c 2.23,0.17 5.24,0.23 8.72,0.22 3.48,-0.01 0,0.09 0,0.13 v 0.43 c 0,0.12 0,0.23 0.07,0.35 v 0.13 q 0.05,0.19 0.12,0.37 v 0.12 c 0.05,0.12 0.11,0.24 0.17,0.36 v 0.08 c 0.07,0.12 0.14,0.24 0.22,0.36 l 0.07,0.1 q 0.13,0.19 0.29,0.38 l 0.08,0.1 c 0.11,0.13 0.23,0.25 0.36,0.38 h 0.05 l 0.4,0.34 0.09,0.07 0.49,0.35 0.12,0.08 0.56,0.33 h 0.09 l 0.61,0.3 h 0.09 l 0.71,0.29 0.15,0.06 0.79,0.26 h 0.13 l 0.85,0.22 h 0.07 l 1,0.19 h 0.19 l 1,0.15 h 0.19 l 1.15,0.11 c 14.11,1.09 59.14,-2.17 59.14,-2.17 v -0.29 c 0.45,-2.1 2.61,-14.31 -5.07,-23.34 0.23,-0.24 0.45,-0.49 0.66,-0.75 0,0 -6,-10.31 -2.71,-13.56 3.29,-3.25 -15.89,-59.18 -15.89,-59.18 0,0 -10.31,-16.28 -4.34,-34.73 5.97,-18.45 -0.54,-38.52 -0.54,-38.52 0,0 14.25,-4.22 14.51,-21.75 v -1.63 a 5.76,5.76 0 0 0 0.9,0.06 4.21,4.21 0 0 0 0.6,0 c 0,0 -2.71,-9.77 0.54,-16.82 3.25,-7.05 10.31,-0.54 16.82,-29.3 4.71,-20.81 8.85,-44.74 10.79,-56.39 a 29.69,29.69 0 0 0 -1.19,-14.41 z m -123.82,61 -4.95,-4.7 c 1.64,0.68 3.46,1.34 5.49,2 l 18.65,2.19 c -8.32,0.75 -16.09,1.17 -19.19,0.54 z"
     fill="url(#b)"
     id="path154"
     style="fill:url(#b)" />
  <path
     d="m 253.32731,398.63952 c 0,0 -38.38,5.33 -46.38,3.73 l -21.32,-20.26 c 0,0 -20.26,15.46 11.73,25.59 l 59.7,6.93 z"
     fill="#fdc2cc"
     id="path156" />
  <path
     d="m 253.32731,398.63952 c 0,0 -38.38,5.33 -46.38,3.73 l -21.32,-20.26 c 0,0 -20.26,15.46 11.73,25.59 l 59.7,6.93 z"
     opacity="0.05"
     id="path158" />
  <path
     d="m 267.19731,615.05952 -18.66,16.52 c 0,0 -10.66,2.67 -16.52,2.13 -5.86,-0.54 -8.53,9.06 5.33,10.13 13.86,1.07 58.1,-2.13 58.1,-2.13 0,0 4.26,-17.06 -8.53,-26.65 z"
     fill="#47465a"
     id="path170" />
  <path
     d="m 267.19731,615.05952 -18.66,16.52 c 0,0 -10.66,2.67 -16.52,2.13 -5.86,-0.54 -8.53,9.06 5.33,10.13 13.86,1.07 58.1,-2.13 58.1,-2.13 0,0 4.26,-17.06 -8.53,-26.65 z"
     opacity="0.05"
     id="path172" />
  <path
     d="m 296.10731,634.33952 a 29.4,29.4 0 0 1 -0.67,5.78 c 0,0 -44.24,3.2 -58.1,2.13 -6.67,-0.51 -9.5,-3 -10,-5.38 -0.61,2.74 1.81,6.35 10,7 13.86,1.07 58.1,-2.13 58.1,-2.13 a 30.8,30.8 0 0 0 0.67,-7.4 z"
     fill="#ffffff"
     opacity="0.3"
     id="path174" />
  <path
     d="m 289.03731,312.86952 c 0,0 11.73,16.52 7.46,27.72 -4.27,11.2 22.39,-11.73 22.39,-11.73 0,0 -8.53,-14.99 -4.26,-30.99 z"
     fill="#fdc2cc"
     id="path176" />
  <path
     d="m 285.83731,621.45952 -18.64,16.52 c 0,0 -10.66,2.67 -16.52,2.13 -5.86,-0.54 -8.53,9.06 5.33,10.13 13.86,1.07 58.1,-2.13 58.1,-2.13 0,0 4.26,-17.06 -8.53,-26.65 z"
     fill="#47465a"
     id="path178" />
  <path
     d="m 291.19731,617.72952 c -2.78,3.43 -6.7,4.75 -10.8,4.95 -9.32,0.44 -19.58,-4.95 -19.58,-4.95 6.93,-5.86 -10.66,-57.57 -10.66,-57.57 -14.39,-6.93 -13.33,-22.39 -13.33,-22.39 l 4.66,-83.9 1.18,-21.08 14.93,-9.06 11.76,9 11.16,8.56 a 44.86,44.86 0 0 1 1.4,8.32 c 1.3,19.59 -14.19,24.2 -14.19,24.2 0,0 6.4,19.72 0.53,37.85 -5.87,18.13 4.26,34.12 4.26,34.12 0,0 19.19,55.44 16,58.64 -3.19,3.2 2.68,13.31 2.68,13.31 z"
     fill="#565171"
     id="path180" />
  <path
     d="m 291.19731,617.72952 c -2.78,3.43 -6.7,4.75 -10.8,4.95 -9.32,0.44 -19.58,-4.95 -19.58,-4.95 6.93,-5.86 -10.66,-57.57 -10.66,-57.57 -14.39,-6.93 -13.33,-22.39 -13.33,-22.39 l 4.66,-83.9 1.18,-21.08 14.93,-9.06 11.76,9 11.16,8.56 a 44.86,44.86 0 0 1 1.4,8.32 c 1.3,19.59 -14.19,24.2 -14.19,24.2 0,0 6.4,19.72 0.53,37.85 -5.87,18.13 4.26,34.12 4.26,34.12 0,0 19.19,55.44 16,58.64 -3.19,3.2 2.68,13.31 2.68,13.31 z"
     opacity="0.05"
     id="path182" />
  <path
     d="m 309.82731,624.11952 c -9.06,11.19 -30.38,0 -30.38,0 a 3.4,3.4 0 0 0 0.93,-1.45 c 3.91,-10.63 -13.19,-61.45 -13.19,-61.45 -14.39,-6.93 -16,-23.45 -16,-23.45 l -3.77,-85.42 -0.49,-11.06 22.43,-8.56 6.89,-2.63 22.95,17.59 a 41.57,41.57 0 0 1 1.44,11.18 c -0.29,17.21 -14.26,21.37 -14.26,21.37 0,0 6.4,19.72 0.53,37.85 -5.87,18.13 4.29,34.07 4.29,34.07 0,0 19.19,55.44 16,58.64 -3.19,3.2 2.63,13.32 2.63,13.32 z"
     fill="#565171"
     id="path184" />
  <path
     d="m 300.63731,458.86952 c -4.61,-0.66 -13.94,-6.21 -18.73,-9.22 -1.83,-1.15 -3,-1.92 -3,-1.92 0,0 -4.8,-13.33 -17.59,-3.2 a 47.89,47.89 0 0 1 -13.9,7.86 32.52,32.52 0 0 1 -5.93,1.49 l 1.18,-21.08 14.93,-9.06 11.76,9 6.89,-2.63 22.95,17.58 a 41.57,41.57 0 0 1 1.44,11.18 z"
     opacity="0.1"
     id="path186" />
  <path
     d="m 329.48731,356.57952 c -1.9,11.44 -6,35 -10.6,55.39 -6.4,28.25 -13.33,21.85 -16.52,28.78 -3.19,6.93 -0.53,16.52 -0.53,16.52 -5.33,0.53 -22.92,-11.19 -22.92,-11.19 0,0 -4.8,-13.33 -17.59,-3.2 -12.79,10.13 -22.92,9.59 -22.92,9.59 -2.67,-17.59 17.06,-64.5 17.06,-64.5 0,0 19.19,-36.25 23.45,-41 a 20,20 0 0 0 4.12,-8.1 22.05,22.05 0 0 0 0.68,-3.62 c 6.93,-0.53 24,-12.26 24,-12.26 l 13.33,-2.13 v 6.93 a 2,2 0 0 1 0.44,0.27 c 2.19,1.67 5,8.79 6.87,14.4 a 29.17,29.17 0 0 1 1.13,14.12 z"
     fill="#e1a0a7"
     id="path188"
     style="fill:#fa9f0d;fill-opacity:1" />
  <path
     d="m 267.19731,406.63952 -6.89,-0.8 -52.81,-6.13 c -32,-10.13 -11.73,-25.59 -11.73,-25.59 l 21.32,20.26 c 6.15,1.23 30.28,-1.64 41.09,-3 3.24,-0.42 5.29,-0.7 5.29,-0.7 z"
     fill="#fdc2cc"
     id="path190" />
  <path
     d="m 318.88731,334.67952 c 0,0 -13.86,-11.19 -34.69,25.05 -20.83,36.24 -25.59,30.38 -25.59,30.38 0,0 4.26,16 2.13,19.19 0,0 14.39,-1.07 19.72,0 5.33,1.07 38.38,-40.51 38.38,-40.51 0,0 17.11,-23.45 0.05,-34.11 z"
     opacity="0.1"
     id="path192" />
  <path
     d="m 318.35731,332.54952 c 0,0 -13.86,-11.19 -34.65,25.05 -20.79,36.24 -25.59,30.38 -25.59,30.38 0,0 16.52,18.12 21.85,19.19 5.33,1.07 38.38,-40.51 38.38,-40.51 0,0 17.07,-23.45 0.01,-34.11 z"
     opacity="0.1"
     id="path194" />
  <path
     d="m 260.29731,405.86952 c 0.22,-3.95 -1.27,-10.89 -2.13,-14.49 3.24,-0.42 5.29,-0.7 5.29,-0.7 l 3.73,16 z"
     opacity="0.1"
     id="path196" />
  <path
     d="m 318.88731,333.60952 c 0,0 -13.86,-11.19 -34.69,25.06 -20.83,36.25 -25.59,30.38 -25.59,30.38 0,0 4.26,16 2.13,19.19 0,0 14.39,-1.07 19.72,0 5.33,1.07 38.38,-40.51 38.38,-40.51 0,0 17.11,-23.46 0.05,-34.12 z"
     fill="#e1a0a7"
     id="path198"
     style="fill:#fa9f0d;fill-opacity:1" />
  <path
     d="m 315.19731,298.95952 -25.63,14.91 a 54.69,54.69 0 0 1 3,4.88 22.49,22.49 0 0 0 4.48,0.45 c 6.83,0 10,-7.17 14.13,-12 -0.3,-3.84 2.84,-3.94 4.02,-8.24 z"
     opacity="0.1"
     id="path200" />
  <circle
     cx="296.49731"
     cy="295.7695"
     r="22.389999"
     fill="#fdc2cc"
     id="circle202" />
  <path
     d="m 268.19731,277.65952 a 15.3,15.3 0 0 1 8.38,-4.4 c 3.11,-0.67 6.52,-0.87 9,-2.86 2.81,-2.25 4.07,-6.53 7.54,-7.49 a 8.27,8.27 0 0 1 4.51,0.36 29.21,29.21 0 0 1 14.12,9.42 12.09,12.09 0 0 0 3.26,3.25 23.6,23.6 0 0 1 2.24,1.09 6.11,6.11 0 0 1 1.82,2.39 23.18,23.18 0 0 1 1.62,16.27 c -0.87,3.21 -2.43,6.19 -3.36,9.39 -0.93,3.2 -1.16,6.82 0.53,9.68 -1.64,0.84 -3.71,-0.22 -4.74,-1.75 -1.03,-1.53 -1.34,-3.41 -1.88,-5.18 a 19.75,19.75 0 0 0 -5.78,-9 c -1.68,-1.48 -4.68,-2.48 -5.85,-0.57 -0.45,0.74 -0.42,1.69 -0.81,2.46 -0.76,1.51 -3,1.81 -4.43,1 a 6.79,6.79 0 0 1 -2.77,-4.11 c -2.19,-7.43 -5.94,-12.1 -13.88,-8.93 -3,1.18 -6.45,2 -9.3,0 -3.65,-2.68 -2.92,-7.99 -0.22,-11.02 z"
     opacity="0.1"
     id="path204" />
  <path
     d="m 268.19731,277.11952 a 15.3,15.3 0 0 1 8.38,-4.4 c 3.11,-0.67 6.52,-0.87 9,-2.86 2.81,-2.25 4.07,-6.53 7.54,-7.49 a 8.27,8.27 0 0 1 4.51,0.36 29.21,29.21 0 0 1 14.12,9.42 12.09,12.09 0 0 0 3.26,3.25 23.6,23.6 0 0 1 2.24,1.09 6.11,6.11 0 0 1 1.82,2.39 23.18,23.18 0 0 1 1.62,16.27 c -0.87,3.21 -2.43,6.19 -3.36,9.39 -0.93,3.2 -1.16,6.82 0.53,9.68 -1.64,0.84 -3.71,-0.22 -4.74,-1.75 -1.03,-1.53 -1.34,-3.41 -1.88,-5.18 a 19.75,19.75 0 0 0 -5.78,-9 c -1.68,-1.48 -4.68,-2.48 -5.85,-0.57 -0.45,0.74 -0.42,1.69 -0.81,2.46 -0.76,1.51 -3,1.81 -4.43,1 a 6.79,6.79 0 0 1 -2.77,-4.11 c -2.19,-7.43 -5.94,-12.1 -13.88,-8.93 -3,1.18 -6.45,2 -9.3,0 -3.65,-2.67 -2.92,-7.98 -0.22,-11.02 z"
     fill="#8f5a6a"
     id="path206" />
  <path
     d="m 321.45731,328.01952 h -10.83 c 0,0 -21.32,10.66 -21.85,10.13 -0.36,-0.36 -3.66,0.26 -5.75,0.69 a 22.05,22.05 0 0 0 0.68,-3.62 c 6.93,-0.53 24,-12.26 24,-12.26 l 13.33,-2.13 v 6.93 a 2,2 0 0 1 0.42,0.26 z"
     opacity="0.05"
     id="path208" />
  <path
     d="m 314.75731,640.72952 a 29.4,29.4 0 0 1 -0.67,5.78 c 0,0 -44.24,3.2 -58.1,2.13 -6.67,-0.51 -9.5,-3 -10,-5.38 -0.61,2.74 1.81,6.35 10,7 13.86,1.07 58.1,-2.13 58.1,-2.13 a 30.8,30.8 0 0 0 0.67,-7.4 z"
     fill="#ffffff"
     opacity="0.3"
     id="path210" />
  <g
     opacity="0.05"
     id="g214"
     transform="translate(-36.812695,-38.06048)">
    <path
       d="m 293.07,480.41 c -7.19,5.7 -13.55,8 -17.73,9 0,0.4 0.08,0.79 0.14,1.17 0,0 10.13,0.53 22.92,-9.59 a 17.18,17.18 0 0 1 6.85,-3.58 c -2.79,-1.37 -6.77,-1.28 -12.18,3 z m 72.34,-99.94 c -1.91,-5.61 -4.68,-12.72 -6.87,-14.4 a 2,2 0 0 0 -0.44,-0.27 c 0,0 -4.41,0.15 -4.26,0.27 2.19,1.67 4.33,8.26 6.24,13.86 a 29.17,29.17 0 0 1 1.16,14.16 c -1.9,11.44 -6,35 -10.6,55.39 -6.4,28.25 -13.33,21.85 -16.52,28.78 -2.62,5.68 -1.31,13.14 -0.74,15.65 a 13.41,13.41 0 0 0 5.54,1.41 c 0,0 -2.67,-9.59 0.53,-16.52 3.2,-6.93 10.13,-0.53 16.52,-28.78 4.63,-20.44 8.7,-44 10.6,-55.39 a 29.17,29.17 0 0 0 -1.16,-14.16 z"
       id="path212" />
  </g>
  <path
     d="m 629.36,484.04 a 11.67,11.67 0 0 0 3.83,-5.78 c 0.5,-2.3 -0.48,-5.05 -2.68,-5.89 -2.46,-0.94 -5.09,0.76 -7.08,2.49 -1.99,1.73 -4.28,3.69 -6.89,3.32 a 10.48,10.48 0 0 0 3.24,-9.81 4.1,4.1 0 0 0 -0.9,-2 c -1.37,-1.46 -3.84,-0.83 -5.48,0.32 -5.2,3.66 -6.65,10.72 -6.68,17.08 -0.52,-2.29 -0.08,-4.68 -0.1,-7 -0.02,-2.32 -0.66,-5 -2.64,-6.22 a 8,8 0 0 0 -4,-0.95 c -2.34,-0.09 -4.94,0.15 -6.54,1.86 -2,2.12 -1.47,5.69 0.26,8 1.73,2.31 4.35,3.8 6.77,5.42 a 15,15 0 0 1 4.84,4.61 4.57,4.57 0 0 1 0.36,0.82 h 14.65 a 40.83,40.83 0 0 0 9.04,-6.27 z m 26.91,187.77 c 2.33,-2.17 4.52,-4.73 5.2,-7.84 0.68,-3.11 -0.65,-6.85 -3.63,-8 -3.33,-1.28 -6.9,1 -9.6,3.37 -2.7,2.37 -5.8,5 -9.33,4.5 a 14.21,14.21 0 0 0 4.39,-13.3 5.56,5.56 0 0 0 -1.22,-2.7 c -1.85,-2 -5.21,-1.13 -7.42,0.43 -7,5 -9,14.53 -9.05,23.15 -0.71,-3.11 -0.11,-6.35 -0.13,-9.54 -0.02,-3.19 -0.89,-6.72 -3.58,-8.44 a 10.79,10.79 0 0 0 -5.46,-1.28 c -3.17,-0.12 -6.7,0.2 -8.86,2.52 -2.69,2.88 -2,7.71 0.35,10.88 2.35,3.17 5.9,5.16 9.17,7.35 a 20.34,20.34 0 0 1 6.55,6.25 6.19,6.19 0 0 1 0.49,1.12 h 19.87 a 55.36,55.36 0 0 0 12.26,-8.47 z"
     fill="#6c63ff"
     id="path216" />
  <path
     d="M 830.43656,490.55573 719.74185,459.8591 695.07777,183.18905 h 271.05124 l -24.69077,276.63001 z"
     fill="#264de4"
     id="path160-3"
     style="fill:#fa9f0d;fill-opacity:1;stroke-width:1.33464" />
  <path
     d="M 920.29761,442.21521 941.3982,205.82448 H 830.62341 V 467.0261 Z"
     fill="#2965f1"
     id="path162-6"
     style="fill:#fa740d;fill-opacity:1;stroke-width:1.33464" />
  <circle
     style="fill:#848392;fill-opacity:1;stroke:#848392;stroke-width:4.7277;stroke-linecap:square;stroke-linejoin:round;stroke-opacity:1"
     id="path1071"
     cx="201.7504"
     cy="390.81076"
     r="19.722723" />
  <circle
     style="fill:#fa9f0d;fill-opacity:1;stroke:#fa9f0d;stroke-width:4.7277;stroke-linecap:square;stroke-linejoin:round;stroke-opacity:1"
     id="path1071-3"
     cx="199.95468"
     cy="389.62094"
     r="19.722723" />
  <circle
     style="fill:#fa740d;fill-opacity:1;stroke:#fa740d;stroke-width:4.7277;stroke-linecap:square;stroke-linejoin:round;stroke-opacity:1"
     id="path1073"
     cx="200.03488"
     cy="389.72836"
     r="3.8761346" />
  <circle
     style="fill:#fa9f0d;fill-opacity:1;stroke:#fa9f0d;stroke-width:2.30551;stroke-linecap:square;stroke-linejoin:round;stroke-opacity:1"
     id="path1073-5"
     cx="200.22946"
     cy="389.85062"
     r="1.8902326" />
  <path
     d="m 184.88719,658.65843 a 11.67,11.67 0 0 0 3.83,-5.78 c 0.5,-2.3 -0.48,-5.05 -2.68,-5.89 -2.46,-0.94 -5.09,0.76 -7.08,2.49 -1.99,1.73 -4.28,3.69 -6.89,3.32 a 10.48,10.48 0 0 0 3.24,-9.81 4.1,4.1 0 0 0 -0.9,-2 c -1.37,-1.46 -3.84,-0.83 -5.48,0.32 -5.2,3.66 -6.65,10.72 -6.68,17.08 -0.52,-2.29 -0.08,-4.68 -0.1,-7 -0.02,-2.32 -0.66,-5 -2.64,-6.22 a 8,8 0 0 0 -4,-0.95 c -2.34,-0.09 -4.94,0.15 -6.54,1.86 -2,2.12 -1.47,5.69 0.26,8 1.73,2.31 4.35,3.8 6.77,5.42 a 15,15 0 0 1 4.84,4.61 4.57,4.57 0 0 1 0.36,0.82 h 14.65 a 40.83,40.83 0 0 0 9.04,-6.27 z"
     fill="#6c63ff"
     id="path44-6" />
</svg>
